<?xml version="1.0" encoding="utf-8"?>
<!-- Generator: Adobe Illustrator 19.0.1, SVG Export Plug-In . SVG Version: 6.00 Build 0)  -->
<svg version="1.1" id="Layer_1" xmlns="http://www.w3.org/2000/svg" xmlns:xlink="http://www.w3.org/1999/xlink" x="0px" y="0px"
	 viewBox="0 0 176.5 176.6" style="enable-background:new 0 0 176.5 176.6;" xml:space="preserve">
<style type="text/css">
	.st0{fill:#8D6E63;}
	.st1{fill:#6D4D42;}
	.st2{fill:#FAFBFB;}
	.st3{fill:#BDBDBD;}
	.st4{fill:#42A047;}
	.st5{fill:#378F43;}
	.st6{fill:#4E352E;}
	.st7{fill:#317E3D;}
	.st8{fill:#1E5F30;}
	.st9{fill:#F5F5F5;}
	.st10{fill:#E0E0E0;}
	.st11{fill:#5D4137;}
	.st12{fill:#7CB342;}
	.st13{fill:#679F42;}
</style>
<g>
	<g>
		<polygon class="st0" points="88.3,0 0.8,176.6 175.8,176.6 		"/>
		<polygon class="st1" points="175.8,176.6 88.3,0 134.9,176.6 		"/>
		<path class="st2" d="M88.3,0L61.1,52.1c-0.3,0.6,0,1.4,0.6,1.4l0.2-0.2l13.1-16l2,11.9l11-11.8l7.6,16.5l2.2-7.4l12.5,2.5l4.7,4.5
			c0.6,0,0.9-0.8,0.6-1.4L88.3,0z"/>
		<path class="st3" d="M115.5,52.1L88.3,0l13.2,47.2l8.8,1.7l4.7,4.5C115.5,53.5,115.8,52.7,115.5,52.1z"/>
	</g>
	<g>
		<path class="st4" d="M167.2,163.8L6.1,163.6c-6.6,0-6.1,12.9-6.1,12.9h175.2c3.5,0,1.3,0.1,1.3,0.1S179,163.8,167.2,163.8z"/>
		<g>
			<path class="st4" d="M83.1,163.8c-19.4,0-19.4-13-38.7-13c-17.5,0-19.3,9.9-33.6,12.7c-2.4,0.5,1.1,0.3,1.1,0.3H83.1z"/>
			<path class="st5" d="M44.4,163.8h38.7c-19.4,0-19.4-13-38.7-13l0,0V163.8z"/>
		</g>
		<g>
			<path class="st4" d="M159.4,163.8c-28,0-28-18.8-55.9-18.8c-28,0-28,18.8-55.9,18.8H159.4z"/>
			<path class="st5" d="M103.5,163.8h55.9c-28,0-28-18.8-55.9-18.8l0,0V163.8z"/>
		</g>
		<g>
			<path class="st1" d="M41.5,158.1v11.2c0,0.4,0.5,0.7,1.1,0.7c0.6,0,1.1-0.3,1.1-0.7v-11.2H41.5z"/>
			<path class="st6" d="M43.7,158.1v11.2c0,0.4-0.5,0.7-1.1,0.7v-11.9H43.7z"/>
			<path class="st7" d="M49.6,151.4c0,7.3-3.2,13.3-7,13.3c-3.9,0-7-5.9-7-13.3c0-7.3,3.2-13.2,7-13.2
				C46.5,138.2,49.6,144.1,49.6,151.4z"/>
			<path class="st8" d="M42.6,138.2v26.5c3.9,0,7-5.9,7-13.3C49.6,144.1,46.5,138.2,42.6,138.2z"/>
			<circle class="st8" cx="39.3" cy="159.5" r="0.7"/>
			<circle class="st8" cx="41.2" cy="154.5" r="0.7"/>
			<circle class="st8" cx="36.9" cy="150.9" r="0.7"/>
			<path class="st8" d="M41.2,146.2c0,0.4-0.3,0.7-0.7,0.7c-0.4,0-0.7-0.3-0.7-0.7c0-0.4,0.3-0.7,0.7-0.7
				C40.9,145.5,41.2,145.9,41.2,146.2z"/>
			<circle class="st7" cx="44" cy="141.1" r="0.7"/>
			<circle class="st7" cx="46.8" cy="144.4" r="0.7"/>
			<circle class="st7" cx="44" cy="148.4" r="0.7"/>
			<path class="st7" d="M47.5,150.6c0,0.4-0.3,0.7-0.7,0.7c-0.4,0-0.7-0.3-0.7-0.7c0-0.4,0.3-0.7,0.7-0.7
				C47.2,149.9,47.5,150.2,47.5,150.6z"/>
			<circle class="st7" cx="43.8" cy="155.9" r="0.7"/>
			<path class="st7" d="M46.7,160.5c0,0.4-0.3,0.7-0.7,0.7c-0.4,0-0.7-0.3-0.7-0.7c0-0.4,0.3-0.7,0.7-0.7
				C46.4,159.8,46.7,160.1,46.7,160.5z"/>
			<circle class="st8" cx="39.3" cy="142.2" r="0.7"/>
		</g>
		<g>
			<path class="st1" d="M17.7,150.7V166c0,0.5,0.6,1,1.5,1c0.8,0,1.5-0.4,1.5-1v-15.3H17.7z"/>
			<path class="st6" d="M20.6,150.7V166c0,0.5-0.6,1-1.5,1v-16.2H20.6z"/>
			<ellipse class="st7" cx="19.2" cy="141.5" rx="9.6" ry="18.1"/>
			<path class="st8" d="M19.2,123.4v36.2c5.3,0,9.6-8.1,9.6-18.1C28.8,131.5,24.5,123.4,19.2,123.4z"/>
			<circle class="st8" cx="14.7" cy="152.5" r="0.9"/>
			<circle class="st8" cx="17.2" cy="145.8" r="0.9"/>
			<circle class="st8" cx="11.4" cy="140.8" r="0.9"/>
			<circle class="st8" cx="16.3" cy="134.4" r="0.9"/>
			<circle class="st7" cx="21.1" cy="127.4" r="0.9"/>
			<circle class="st7" cx="24.9" cy="132" r="0.9"/>
			<circle class="st7" cx="21.1" cy="137.3" r="0.9"/>
			<circle class="st7" cx="24.9" cy="140.4" r="0.9"/>
			<circle class="st7" cx="20.8" cy="147.6" r="0.9"/>
			<circle class="st7" cx="23.8" cy="154" r="0.9"/>
			<circle class="st8" cx="14.7" cy="128.9" r="0.9"/>
		</g>
		<g>
			<path class="st1" d="M145.4,155.1v13.1c0,0.5,0.6,0.8,1.2,0.8c0.7,0,1.2-0.4,1.2-0.8v-13.1H145.4z"/>
			<path class="st6" d="M147.9,155.1v13.1c0,0.5-0.6,0.8-1.2,0.8v-13.9H147.9z"/>
			<ellipse class="st7" cx="146.7" cy="147.2" rx="8.2" ry="15.5"/>
			<path class="st8" d="M146.7,131.7v31c4.6,0,8.3-7,8.3-15.5C154.9,138.6,151.2,131.7,146.7,131.7z"/>
			<circle class="st8" cx="142.8" cy="156.6" r="0.8"/>
			<circle class="st8" cx="145" cy="150.8" r="0.8"/>
			<path class="st8" d="M140.8,146.6c0,0.4-0.4,0.8-0.8,0.8c-0.4,0-0.8-0.4-0.8-0.8c0-0.4,0.4-0.8,0.8-0.8
				C140.4,145.8,140.8,146.2,140.8,146.6z"/>
			<circle class="st8" cx="144.2" cy="141.1" r="0.8"/>
			<circle class="st7" cx="148.3" cy="135.1" r="0.8"/>
			<circle class="st7" cx="151.6" cy="139" r="0.8"/>
			<circle class="st7" cx="148.3" cy="143.6" r="0.8"/>
			<circle class="st7" cx="151.6" cy="146.2" r="0.8"/>
			<circle class="st7" cx="148.1" cy="152.4" r="0.8"/>
			<circle class="st7" cx="150.6" cy="157.9" r="0.8"/>
			<circle class="st8" cx="142.8" cy="136.4" r="0.8"/>
		</g>
		<g>
			<path class="st1" d="M7.4,158.7v11c0,0.4,0.5,0.7,1,0.7c0.6,0,1-0.3,1-0.7v-11H7.4z"/>
			<path class="st6" d="M9.4,158.7v11c0,0.4-0.5,0.7-1,0.7v-11.6H9.4z"/>
			<ellipse class="st7" cx="8.4" cy="152.1" rx="6.9" ry="13"/>
			<path class="st8" d="M8.4,139.1v26c3.8,0,6.9-5.8,6.9-13C15.3,144.9,12.2,139.1,8.4,139.1z"/>
			<circle class="st8" cx="5.2" cy="160" r="0.7"/>
			<circle class="st8" cx="7" cy="155.2" r="0.7"/>
			<circle class="st8" cx="2.8" cy="151.6" r="0.7"/>
			<circle class="st8" cx="6.3" cy="147" r="0.7"/>
			<circle class="st7" cx="9.8" cy="142" r="0.7"/>
			<circle class="st7" cx="12.5" cy="145.3" r="0.7"/>
			<circle class="st7" cx="9.8" cy="149.1" r="0.7"/>
			<circle class="st7" cx="12.5" cy="151.3" r="0.7"/>
			<circle class="st7" cx="9.6" cy="156.5" r="0.7"/>
			<circle class="st7" cx="11.7" cy="161" r="0.7"/>
			<circle class="st8" cx="5.2" cy="143.1" r="0.7"/>
		</g>
		<g>
			<path class="st7" d="M6.8,169.7c-1,0-1.8,0.8-1.8,1.8h3.6C8.6,170.5,7.8,169.7,6.8,169.7z"/>
			<path class="st8" d="M10.2,168.5c-1.7,0-3,1.3-3,3h6C13.3,169.9,11.9,168.5,10.2,168.5z"/>
		</g>
		<g>
			<path class="st7" d="M21.9,164.2c-1.5,0-2.7,1.2-2.7,2.7h5.4C24.6,165.4,23.4,164.2,21.9,164.2z"/>
			<path class="st8" d="M24.4,165.2c-1,0-1.8,0.8-1.8,1.8h3.6C26.1,166,25.3,165.2,24.4,165.2z"/>
		</g>
		<g>
			<path class="st1" d="M162.6,155.5v18.6c0,0.6,0.8,1.2,1.8,1.2s1.8-0.5,1.8-1.2v-18.6H162.6z"/>
			<path class="st6" d="M166.2,155.5v18.6c0,0.6-0.8,1.2-1.8,1.2v-19.8H166.2z"/>
			<ellipse class="st7" cx="164.4" cy="144.3" rx="11.7" ry="22.1"/>
			<path class="st8" d="M164.4,122.2v44.2c6.5,0,11.7-9.9,11.7-22.1C176.2,132.1,170.9,122.2,164.4,122.2z"/>
			<circle class="st8" cx="159" cy="157.7" r="1.1"/>
			<circle class="st8" cx="162" cy="149.5" r="1.1"/>
			<circle class="st8" cx="154.9" cy="143.5" r="1.1"/>
			<circle class="st8" cx="160.9" cy="135.6" r="1.1"/>
			<circle class="st7" cx="166.8" cy="127.1" r="1.1"/>
			<circle class="st7" cx="171.4" cy="132.7" r="1.1"/>
			<circle class="st7" cx="166.8" cy="139.2" r="1.1"/>
			<circle class="st7" cx="171.4" cy="142.9" r="1.1"/>
			<circle class="st7" cx="166.4" cy="151.7" r="1.1"/>
			<circle class="st7" cx="170.1" cy="159.5" r="1.1"/>
			<circle class="st8" cx="159" cy="128.9" r="1.1"/>
		</g>
		<g>
			<path class="st7" d="M166.2,173.5c-1,0-1.8,0.8-1.8,1.8h3.6C168,174.3,167.2,173.5,166.2,173.5z"/>
			<path class="st8" d="M169.6,172.3c-1.7,0-3,1.3-3,3h6C172.6,173.6,171.3,172.3,169.6,172.3z"/>
		</g>
		<g>
			<path class="st9" d="M88.6,170.9c-1.6,0-2.9,1.3-2.9,2.9h5.7C91.4,172.1,90.1,170.9,88.6,170.9z"/>
			<path class="st10" d="M91.4,173.7c0-1.6-1.3-2.9-2.9-2.9v2.9H91.4z"/>
		</g>
		<g>
			<path class="st9" d="M37.9,168.8c-1.6,0-2.9,1.3-2.9,2.9h5.7C40.8,170,39.5,168.8,37.9,168.8z"/>
			<path class="st10" d="M40.8,171.6c0-1.6-1.3-2.9-2.9-2.9v2.9H40.8z"/>
		</g>
		<g>
			<path class="st9" d="M124.1,164.6c-0.8,0-1.5,0.7-1.5,1.5h3C125.6,165.3,124.9,164.6,124.1,164.6z"/>
			<path class="st10" d="M125.6,166.1c0-0.8-0.7-1.5-1.5-1.5v1.5H125.6z"/>
		</g>
		<g>
			<path class="st9" d="M53.3,166.6c-0.8,0-1.5,0.7-1.5,1.5h3C54.8,167.3,54.1,166.6,53.3,166.6z"/>
			<path class="st10" d="M54.8,168.1c0-0.8-0.7-1.5-1.5-1.5v1.5H54.8z"/>
		</g>
		<g>
			<path class="st9" d="M153.2,167.6c-1.2,0-2.2,1-2.2,2.2h4.4C155.4,168.6,154.4,167.6,153.2,167.6z"/>
			<path class="st10" d="M155.4,169.8c0-1.2-1-2.2-2.2-2.2v2.2H155.4z"/>
		</g>
		<g>
			<g>
				<path class="st1" d="M93.9,147.3v3c0,0.1,0.1,0.2,0.3,0.2c0.2,0,0.3-0.1,0.3-0.2v-3H93.9z"/>
				<path class="st11" d="M94.5,147.3v3c0,0.1-0.1,0.2-0.3,0.2v-3.2H94.5z"/>
			</g>
			<polygon class="st12" points="94.2,140.7 91.6,148.9 96.8,148.9 			"/>
			<polygon class="st13" points="96.8,148.9 94.2,140.7 94.2,148.9 			"/>
		</g>
		<g>
			<g>
				<path class="st1" d="M90.5,145.6v2.9c0,0.1,0.1,0.2,0.3,0.2c0.1,0,0.3-0.1,0.3-0.2v-2.9H90.5z"/>
				<path class="st11" d="M91,145.6v2.9c0,0.1-0.1,0.2-0.3,0.2v-3H91z"/>
			</g>
			<polygon class="st12" points="90.7,139.3 88.2,147.2 93.2,147.2 			"/>
			<polygon class="st13" points="93.2,147.2 90.7,139.3 90.7,147.2 			"/>
		</g>
		<g>
			<g>
				<path class="st1" d="M116,151.5v3.5c0,0.1,0.2,0.2,0.3,0.2c0.2,0,0.3-0.1,0.3-0.2v-3.5H116z"/>
				<path class="st11" d="M116.7,151.5v3.5c0,0.1-0.2,0.2-0.3,0.2v-3.8H116.7z"/>
			</g>
			<polygon class="st12" points="116.4,143.7 113.3,153.4 119.5,153.4 			"/>
			<polygon class="st13" points="119.5,153.4 116.4,143.7 116.4,153.4 			"/>
		</g>
		<g>
			<g>
				<path class="st1" d="M66.8,156.3v5.1c0,0.2,0.2,0.3,0.5,0.3c0.3,0,0.5-0.1,0.5-0.3v-5.1H66.8z"/>
				<path class="st11" d="M67.8,156.3v5.1c0,0.2-0.2,0.3-0.5,0.3v-5.4H67.8z"/>
			</g>
			<polygon class="st12" points="67.3,144.9 62.8,159 71.8,159 			"/>
			<polygon class="st13" points="71.8,159 67.3,144.9 67.3,159 			"/>
		</g>
		<g>
			<g>
				<path class="st1" d="M82.6,158.7v2.7c0,0.1,0.1,0.2,0.3,0.2c0.1,0,0.3-0.1,0.3-0.2v-2.7H82.6z"/>
				<path class="st11" d="M83.1,158.7v2.7c0,0.1-0.1,0.2-0.3,0.2v-2.8H83.1z"/>
			</g>
			<polygon class="st12" points="82.8,152.8 80.5,160.1 85.1,160.1 			"/>
			<polygon class="st13" points="85.1,160.1 82.8,152.8 82.8,160.1 			"/>
		</g>
		<g>
			<g>
				<path class="st1" d="M110.8,152.5v4.7c0,0.2,0.2,0.3,0.4,0.3c0.2,0,0.4-0.1,0.4-0.3v-4.7H110.8z"/>
				<path class="st11" d="M111.7,152.5v4.7c0,0.2-0.2,0.3-0.4,0.3v-5H111.7z"/>
			</g>
			<polygon class="st12" points="111.3,142 107.2,155 115.4,155 			"/>
			<polygon class="st13" points="115.4,155 111.3,142 111.3,155 			"/>
		</g>
		<g>
			<g>
				<path class="st1" d="M131.1,157.4v4.3c0,0.2,0.2,0.3,0.4,0.3c0.2,0,0.4-0.1,0.4-0.3v-4.3H131.1z"/>
				<path class="st11" d="M131.9,157.4v4.3c0,0.2-0.2,0.3-0.4,0.3v-4.6H131.9z"/>
			</g>
			<polygon class="st12" points="131.5,147.9 127.7,159.7 135.2,159.7 			"/>
			<polygon class="st13" points="135.2,159.7 131.5,147.9 131.5,159.7 			"/>
		</g>
	</g>
</g>
</svg>
