<?xml version="1.0" encoding="utf-8"?>
<!-- Generator: Adobe Illustrator 19.0.1, SVG Export Plug-In . SVG Version: 6.00 Build 0)  -->
<svg version="1.1" id="Layer_1" xmlns="http://www.w3.org/2000/svg" xmlns:xlink="http://www.w3.org/1999/xlink" x="0px" y="0px"
	 viewBox="0 0 125.3 125.3" style="enable-background:new 0 0 125.3 125.3;" xml:space="preserve">
<style type="text/css">
	.st0{fill:#009D47;}
	.st1{fill:#D9AF90;}
	.st2{fill:#0D9F55;}
	.st3{fill:#028B49;}
	.st4{fill:#87552D;}
	.st5{fill:#3A1D00;}
	.st6{fill:#FFFFFF;}
	.st7{fill:#F06672;}
</style>
<g>
	<g>
		<g>
			<path class="st0" d="M83,32.7c1-1.6,1.9-1.4,3.3-0.4c1,0.8,1.9,1.3,3.2,1.5c-0.5,1.1,0.6,3,1.5,3.7c-3.1,1.3-5.3,6.4-6.9,9
				c-0.8-1-0.4-4.1-1.6-4.6c0.8-3.2,0.5-3.7-2.3-6.6L83,32.7z"/>
		</g>
		<g>
			<path class="st0" d="M33.8,40.4c-1.5-0.9-2.9-2.6-2.1-3.9c0.7-0.9,1.1-1.8,1.3-3c1,0.4,4.4-0.2,4.9-1.1c1.3,2.7,4,4.1,6.4,5.4
				c-0.8,0.8-1.7,1.5-2.1,2.6c-3-0.6-5.6-2.2-8.1,0.4L33.8,40.4z"/>
		</g>
		<g>
			<path d="M76.2,18.9c-3.6,1.2-2.8,6.9-1.2,9.2c1.6,2.3,2.9,3.6,5.5,4.6c1.4,0.5,3.2,1.3,4.5,0.2c-0.4,2.4,2.9,5.5,5.3,4.5
				c-0.7,1.9,0.1,3.9,1.8,5.2c1.2,0.9,6.5,2.3,6.6-0.3c0.8,3.4,5,4.3,7.9,3.8c2.3-0.3,3.9-2.8,3-5c1.2,3.4,6.4,2.6,8.8,1.2
				c2.4-1.4,5.3-6.6,2-8.7c3.2-1,4.9-4.6,4.7-7.8c-0.1-1.9-1.4-3.6-3.2-4.2c-1.3-0.4-3.5-1-4.2,0.5c0.8-1.3,1.8-2,1.9-3.7
				c0.1-1.7-0.4-4.1-1.4-5.4c-0.8-1.1-1.6-2.1-2.9-2.5c-1.2-0.4-1.8,0.1-2.8,0.6c2.4-2.5-1.1-6.2-3.2-7.6c-2.1-1.4-6.7-2-7.8,1
				c0.8-3.2-2.9-4.6-5.4-4.8c-2.4-0.1-5-0.3-6.9,1.5c-1,0.9-1.7,2.6-1.8,4c-1-2.4-5-2.8-6.9-1.5C78.9,5,78,7.6,79.9,9.4
				c-1.3-0.3-2-0.9-3.4-0.1c-1.8,1.1-2.9,3-3,5c-0.1,1.3,0.3,4.3,1.8,4.6L76.2,18.9z"/>
		</g>
		<g>
			<path d="M5.1,35.9c-1.2,0.3-1.2,2.5-1,3.5c0.6,1.9,1.3,3.4,2.9,4.6c1.4,1.1,2.5,1.3,4.3,1.1c1.4-0.2,2.3-0.8,2.6-2.3
				c1.5,1.1,3.4,2.1,5.4,1.6c1.7-0.4,2.1-2.6,2.3-4.1l0.1,0c1.2,1.5,2.6,3,4.7,2.5c2.2-0.5,4-3,3.5-5.2c0.3-0.1,0.3,0.1,0.5,0.2
				c0.4,0.2,0.7,0.7,1.2,0.8c0.8,0.3,1.5-0.1,2.2-0.4c1.5-0.7,2.6-1.7,2.9-3.4c0.2-1.4-0.4-1.9-1.1-2.9c1.4,4.4,6.5,1.7,8.7-0.5
				c1.4-1.4,4.1-6.6,0.7-7.6c2.9,0,3.6-4.4,3.2-6.5c-0.4-2.3-2.1-4.4-4.7-4.1c1.3-2,1.1-6.5-0.7-8.1c-1.2-1.1-5.4-1.5-6.2,0.3
				c-0.4-4.1-4.6-4.7-8.2-4.1c-2.2,0.4-4.5,1.4-6.2,2.9c-1.3,1.1-1.8,2.7-2,4.4c-1.5-1.3-3.8-1-5.6-0.8c-3.1,0.4-5,1.7-7.1,4
				c-2.6,2.9-3.3,7-1.5,10.5c-1.4,0.3-2.3-0.3-3.6,0.7c-1.3,1-2,2.9-2.1,4.5c-0.3,3.1,1.2,7.9,4.2,9.1L5.1,35.9z"/>
		</g>
		<path class="st1" d="M29.6,62.4c0,0-2.2,9.3,1.1,21c0,0,3.2,10.1,2.7,20.9c0,0-0.1,15.7,13.8,19.9c0,0,22.6,7.8,38.4-17.8
			c0,0,15.1,2.3,13.5-9.3c0,0-0.5-7.7-6.2-7.1c0,0-2.4,0.1-5,1.6c0,0,6.2-48.6-19.7-50.6C68.3,40.9,36.8,39.2,29.6,62.4z"/>
		<g>
			<path class="st2" d="M89.4,104.3c-0.4,0.6-1.3,0.8-1.9,0.3c-0.6-0.4-0.8-1.3-0.3-1.9c0.4-0.6,1.3-0.8,1.9-0.3
				C89.6,102.8,89.8,103.7,89.4,104.3z"/>
			<path class="st3" d="M89,102.4l-1.6,2.2c0.6,0.4,1.4,0.3,1.9-0.3C89.8,103.7,89.6,102.8,89,102.4z"/>
		</g>
		<g>
			<path d="M85.5,44.3c0.5-1.4,0.4-3.1,0.2-4.5c-1-6.2-9.4-7.6-14.2-5.2c0.1,0.1,0.1,0.2,0.2,0.3l0.3,0.8c-0.6-1.1-1.2-2.3-2.3-3.2
				c-2.2-1.9-5.7-1.3-8.3-0.6c-1.8,0.5-4.3,1.6-5,3.5c-0.1,0.3-0.3,0.5-0.2,0.8l1.8,2.3c-0.9-1.5-1.9-3.4-3.7-3.9
				c-3.1-1-6.8-1.6-9.9-0.2c-2,0.9-4,2.9-3.9,5l0.8,0.7c-1-4.3-9.5,1-10.8,3.1c-1.2,2.1-0.8,4.4-0.5,6.6l2.2,0.2
				c-1.8-0.6-3.6-0.9-5.3,0.1c-1.6,0.9-2.8,2.7-3.6,4.3C22,57,22,59.8,24.4,61.9c1.1,1,2.7,1.8,4.2,1.7L28,62.3
				c1.4,3,5.5,3.8,8.4,3.3c2.7-0.5,5.9-2.3,7.4-4.5c0.9-1.2,1.5-2.7,2-4.1l-0.8,2.5c1.8,0.9,3.1,1.7,5.2,1.8
				c2.7,0.1,5.5-0.6,7.2-2.8c0.4-0.5,1.5-3.7,1.6-3.7l-1.3,2.9c0.2,1,1.5,1.7,2.3,2.1c3.4,1.8,6,0.2,8.2-2.6l-1.1,1.2
				c-0.4,1.3-0.3,2.6,0.1,4c1,4.4,4.4,6,8.6,6.1L74,68.3c-2.3,1.1-0.8,5.9-0.1,7.6c0.4,1.1,2.4,5.3,4.3,3.8l-0.8,0.5
				c-2,2.2-0.3,6.9,1.4,8.7c1.2,1.3,2.8,2.4,4.6,2.9c1.6,0.4,3.6-0.2,5.1-0.8c3.4-1.2,6.9-3,9.2-5.9c1.5-1.9,1.3-3.3-0.1-5
				c-0.5-0.7-1.2-1.1-1.7-1.8c0.9-0.5,1.7-2.3,2.2-3.1c1.1-1.8,0.9-3.1,0-4.9c-0.7-1.4-1.1-2.9-2.7-3.6c-0.3-0.1-0.8-0.2-0.9-0.4
				l-0.2,0.5c0.4-0.8,1.2-1.4,1.7-2.2c0.7-1.1,0.9-1.9,0.9-3.3c-0.1-2-0.6-4.2-2-5.8c-1.3-1.6-2.9-2-4.8-2.2
				c0.7-2.5,0.7-5.1-1.4-6.9c-1.4-1.1-3-2-4.6-2.5"/>
		</g>
	</g>
	<g>
		<path class="st4" d="M42.3,99.1c0,0,0.1-0.2,0.2-0.4c0.2-0.2,0.4-0.6,0.8-0.9c0.2-0.2,0.4-0.3,0.7-0.4c0.3-0.1,0.6-0.2,0.9-0.3
			c0.3-0.1,0.6-0.1,1-0.2l0.5,0l0.5,0.1c0.3,0.1,0.7,0.2,1,0.3c0.3,0.1,0.6,0.3,0.8,0.5c0.5,0.4,0.9,0.8,1.3,1.1
			c0.7,0.7,1,1.3,1,1.3s-0.5-0.5-1.2-1.1c-0.4-0.3-0.8-0.7-1.3-1c-0.3-0.2-0.5-0.3-0.8-0.4c-0.3-0.1-0.6-0.2-0.9-0.3l-0.4-0.1
			l-0.5,0c-0.3,0-0.6,0.1-0.9,0.1c-0.3,0.1-0.6,0.1-0.8,0.2c-0.2,0.1-0.5,0.2-0.7,0.3C42.7,98.5,42.3,99.1,42.3,99.1z"/>
	</g>
	<path class="st5" d="M42.3,108c0,0,7.2,7.5,16.9,6.2c8-1.1,6.3-8.4,6.8-11.8C66,102.4,53.4,112.7,42.3,108z"/>
	<g>
		<ellipse class="st5" cx="38.9" cy="88" rx="2.2" ry="2.7"/>
		<ellipse class="st6" cx="38.2" cy="87" rx="0.8" ry="1"/>
	</g>
	<g>
		<ellipse class="st5" cx="56.7" cy="84.9" rx="2.6" ry="3.1"/>
		<ellipse class="st6" cx="55.9" cy="83.7" rx="0.9" ry="1.1"/>
	</g>
	<path class="st6" d="M65.4,103.3c0,0-9.5,8.2-21.4,5.7c0,0,4.7,3.3,13,1.1C66.4,107.7,65.4,103.3,65.4,103.3z"/>
	<path class="st7" d="M55,113.8c0,0,2.2-2.3,4.4-1.9c0,0-0.1-1.1,2.3-2.2c2.4-1.1,3.3,0,3.3,0S63.7,114.7,55,113.8z"/>
</g>
</svg>
